HIERARCHY
ROOT Pelvis
{
	OFFSET 0.000000 0.000000 0.000000
	CHANNELS 6 Xposition Yposition Zposition Xrotation Yrotation Zrotation
	JOINT LeftUpLeg_virtual
	{
		OFFSET 0.000000 0.000000 0.000000
		CHANNELS 3 Xrotation Yrotation Zrotation
		JOINT LeftUpLeg
		{
			OFFSET 18.735201 -5.666702 -4.541200
			CHANNELS 3 Xrotation Yrotation Zrotation
			JOINT LeftLeg
			{
				OFFSET -0.021200 -31.938179 0.493100
				CHANNELS 3 Xrotation Yrotation Zrotation
				JOINT LeftFoot
				{
					OFFSET 0.021200 -31.938179 -4.336299
					CHANNELS 3 Xrotation Yrotation Zrotation
					JOINT LeftToeBase
					{
						OFFSET 0.943001 -26.722000 15.023500
						CHANNELS 3 Xrotation Yrotation Zrotation
						End Site
						{
							OFFSET 0 0 0
						}
					}
				}
			}
		}
	}
	JOINT RightUpLeg_virtual
	{
		OFFSET 0.000000 0.000000 0.000000
		CHANNELS 3 Xrotation Yrotation Zrotation
		JOINT RightUpLeg
		{
			OFFSET -18.735201 -5.666702 -4.541200
			CHANNELS 3 Xrotation Yrotation Zrotation
			JOINT RightLeg
			{
				OFFSET 0.018946 -31.938133 0.493100
				CHANNELS 3 Xrotation Yrotation Zrotation
				JOINT RightFoot
				{
					OFFSET -0.018946 -31.938126 -4.336299
					CHANNELS 3 Xrotation Yrotation Zrotation
					JOINT RightToeBase
					{
						OFFSET -0.943001 -26.722004 15.023500
						CHANNELS 3 Xrotation Yrotation Zrotation
						End Site
						{
							OFFSET 0 0 0
						}
					}
				}
			}
		}
	}
	JOINT Hips_virtual
	{
		OFFSET 0.000000 0.000000 0.000000
		CHANNELS 3 Xrotation Yrotation Zrotation
		JOINT Hips
		{
			OFFSET -0.000000 -0.000000 -0.000000
			CHANNELS 3 Xrotation Yrotation Zrotation
			JOINT Spine
			{
				OFFSET 0.000000 10.199997 -0.299500
				CHANNELS 3 Xrotation Yrotation Zrotation
				JOINT Spine1
				{
					OFFSET 0.000000 11.900002 -1.516600
					CHANNELS 3 Xrotation Yrotation Zrotation
					JOINT Spine2
					{
						OFFSET 0.000000 13.600006 -2.842500
						CHANNELS 3 Xrotation Yrotation Zrotation
						JOINT Neck_virtual
						{
							OFFSET 0.000000 0.000000 0.000000
							CHANNELS 3 Xrotation Yrotation Zrotation
							JOINT Neck
							{
								OFFSET 0.000000 9.624100 -2.890100
								CHANNELS 3 Xrotation Yrotation Zrotation
								JOINT Head
								{
									OFFSET 0.000000 14.068802 -1.351900
									CHANNELS 3 Xrotation Yrotation Zrotation
									End Site
									{
										OFFSET 0 0 0
									}
								}
							}
						}
						JOINT LeftShoulder_virtual
						{
							OFFSET 0.000000 0.000000 0.000000
							CHANNELS 3 Xrotation Yrotation Zrotation
							JOINT LeftShoulder
							{
								OFFSET 15.263000 10.923401 -0.547700
								CHANNELS 3 Xrotation Yrotation Zrotation
								JOINT LeftArm
								{
									OFFSET 25.438599 -2.830597 -13.032500
									CHANNELS 3 Xrotation Yrotation Zrotation
									JOINT LeftForeArm
									{
										OFFSET 29.960503 0.000000 0.000000
										CHANNELS 3 Xrotation Yrotation Zrotation
										JOINT LeftHand
										{
											OFFSET 27.849251 0.000000 0.000000
											CHANNELS 3 Xrotation Yrotation Zrotation
											End Site
											{
												OFFSET 0 0 0
											}
										}
									}
								}
							}
						}
						JOINT RightShoulder_virtual
						{
							OFFSET 0.000000 0.000000 0.000000
							CHANNELS 3 Xrotation Yrotation Zrotation
							JOINT RightShoulder
							{
								OFFSET -15.263000 10.923401 -0.547700
								CHANNELS 3 Xrotation Yrotation Zrotation
								JOINT RightArm
								{
									OFFSET -25.438599 -2.830597 -13.032500
									CHANNELS 3 Xrotation Yrotation Zrotation
									JOINT RightForeArm
									{
										OFFSET -29.960503 0.000000 0.000000
										CHANNELS 3 Xrotation Yrotation Zrotation
										JOINT RightHand
										{
											OFFSET -27.849251 0.000000 0.000000
											CHANNELS 3 Xrotation Yrotation Zrotation
											End Site
											{
												OFFSET 0 0 0
											}
										}
									}
								}
							}
						}
					}
				}
			}
		}
	}
}
MOTION
Frames: 12
Frame Time: 0.03333333
-21.201813 129.636810 33.643055 0.000000 0.000000 0.000000 2.668448 -26.338939 -2.438285 -37.378722 4.475154 12.471320 64.515180 3.797350 0.107546 9.491766 3.068409 -2.725798 0.000000 0.000000 0.000000 11.349201 -7.214372 8.228269 -15.188348 -9.340367 -6.583685 55.924599 -10.360460 0.682413 -0.269411 -12.806516 3.326555 0.000000 0.000000 0.000000 1.075644 -9.944782 1.267399 2.422252 -0.543670 0.020466 -3.393571 -1.037385 -0.503743 -1.984764 -0.355071 -0.100722 0.000000 0.000000 0.000000 -6.693804 -0.007761 -2.049712 -3.328215 0.899972 -0.226861 0.000000 0.000000 0.000000 2.360713 1.555647 2.008747 0.756977 2.006457 18.474704 -76.095827 -33.134942 6.523035 -17.568510 -53.896968 11.935254 0.000000 0.000000 0.000000 -4.792201 -2.125035 -4.141522 -1.569155 2.509501 -22.916075 -72.824857 20.962426 -2.396609 -43.679784 66.528993 18.768675 0.000000 0.000000 0.000000 
-21.363289 128.858948 34.532940 0.000000 0.000000 0.000000 2.263520 -25.754758 -2.818754 -37.952721 4.698080 12.298870 65.905793 4.488828 0.258212 10.588847 3.679627 -1.860371 0.000000 0.000000 0.000000 10.598424 -6.571007 8.057844 -16.295657 -9.059122 -6.747472 57.806691 -10.384241 0.348221 1.002824 -12.562568 2.650268 0.000000 0.000000 0.000000 1.099400 -9.536191 1.208790 1.960611 -0.529476 -0.196265 -3.867267 -0.940887 -0.417517 -2.299343 -0.276223 -0.027134 0.000000 0.000000 0.000000 -6.908476 -0.002933 -2.071092 -3.359022 0.826922 -0.271858 0.000000 0.000000 0.000000 2.372333 1.503474 2.167654 1.106133 1.018961 19.372546 -73.963449 -33.593360 7.659706 -15.866196 -52.850733 12.839150 0.000000 0.000000 0.000000 -4.737797 -2.114925 -3.957687 -1.233884 2.650743 -22.449469 -71.295536 20.738794 -1.276311 -39.963550 64.463271 16.260102 0.000000 0.000000 0.000000 
-21.539499 127.955261 35.381611 0.000000 0.000000 0.000000 1.889992 -25.064854 -3.161715 -38.498839 4.938613 12.164779 67.344422 5.215385 0.403692 11.690701 4.335054 -0.957835 0.000000 0.000000 0.000000 9.827876 -5.857026 7.844513 -17.398223 -8.745326 -6.941078 59.634341 -10.294341 0.101486 2.249958 -12.255260 2.219079 0.000000 0.000000 0.000000 1.137703 -9.062647 1.159151 1.529109 -0.388416 -0.371862 -4.331034 -0.849049 -0.308484 -2.589899 -0.199652 0.052571 0.000000 0.000000 0.000000 -7.123098 0.003062 -2.103178 -3.390677 0.757477 -0.319660 0.000000 0.000000 0.000000 2.342858 1.483354 2.322558 1.389346 0.159639 20.293766 -72.019885 -33.876557 8.623258 -14.427678 -51.688160 13.465711 0.000000 0.000000 0.000000 -4.670681 -2.110614 -3.786108 -0.898253 2.765806 -22.095322 -69.713583 20.351221 -0.300210 -36.649648 62.146846 14.119980 0.000000 0.000000 0.000000 
-21.732841 126.977768 36.191643 0.000000 0.000000 0.000000 1.553234 -24.269421 -3.459799 -39.004273 5.192895 12.070248 68.759234 5.947137 0.540900 12.746585 5.006306 -0.050577 0.000000 0.000000 0.000000 9.065115 -5.111372 7.609313 -18.464527 -8.415744 -7.147874 61.345187 -10.117028 -0.064505 3.420253 -11.908510 2.006618 0.000000 0.000000 0.000000 1.188110 -8.532912 1.118730 1.117001 -0.132375 -0.502636 -4.789172 -0.765345 -0.179742 -2.858360 -0.127857 0.136266 0.000000 0.000000 0.000000 -7.348141 0.012497 -2.135159 -3.429200 0.693414 -0.363434 0.000000 0.000000 0.000000 2.269950 1.492268 2.465200 1.602831 -0.575789 21.204657 -70.369506 -33.977469 9.316922 -13.292854 -50.468363 13.784187 0.000000 0.000000 0.000000 -4.599471 -2.115476 -3.641261 -0.572554 2.836042 -21.904505 -68.159428 19.834289 0.521777 -33.838536 59.692916 12.405206 0.000000 0.000000 0.000000 
-21.940414 125.975441 36.966476 0.000000 0.000000 0.000000 1.256176 -23.386385 -3.708482 -39.456790 5.453408 12.012219 70.083103 6.653435 0.668357 13.713689 5.662675 0.828515 0.000000 0.000000 0.000000 8.333839 -4.386836 7.372639 -19.470750 -8.091027 -7.353662 62.894725 -9.886595 -0.156795 4.473933 -11.553403 1.975152 0.000000 0.000000 0.000000 1.247257 -7.957070 1.086862 0.711851 0.219719 -0.589482 -5.245108 -0.693008 -0.036295 -3.106874 -0.063079 0.221026 0.000000 0.000000 0.000000 -7.590821 0.026604 -2.155197 -3.479129 0.635923 -0.395822 0.000000 0.000000 0.000000 2.155527 1.525288 2.587393 1.747465 -1.199172 22.071657 -69.097438 -33.901497 9.658242 -12.477138 -49.256346 13.787214 0.000000 0.000000 0.000000 -4.532603 -2.132183 -3.537362 -0.266769 2.846254 -21.924586 -66.722431 19.244995 1.163056 -31.547763 57.212376 11.083958 0.000000 0.000000 0.000000 
-22.156301 124.991302 37.710751 0.000000 0.000000 0.000000 1.000328 -22.448646 -3.906140 -39.844687 5.710298 11.984261 71.258230 7.306054 0.785951 14.559457 6.274810 1.649005 0.000000 0.000000 0.000000 7.652011 -3.739328 7.151567 -20.401015 -7.791981 -7.547513 64.254629 -9.639791 -0.183209 5.384229 -11.223007 2.079916 0.000000 0.000000 0.000000 1.312075 -7.346761 1.062459 0.305345 0.642670 -0.636586 -5.699899 -0.634636 0.115387 -3.336860 -0.007122 0.303371 0.000000 0.000000 0.000000 -7.852322 0.045327 -2.153738 -3.542075 0.585449 -0.410845 0.000000 0.000000 0.000000 2.006086 1.576968 2.682468 1.828858 -1.724525 22.866883 -68.249859 -33.662321 9.603730 -11.970707 -48.105821 13.493421 0.000000 0.000000 0.000000 -4.476945 -2.162048 -3.484763 0.010735 2.788353 -22.186075 -65.484364 18.649441 1.592241 -29.748640 54.799933 10.083481 0.000000 0.000000 0.000000 
-22.374189 124.060188 38.429928 0.000000 0.000000 0.000000 0.786902 -21.498259 -4.053625 -40.157267 5.953165 11.978205 72.240356 7.882221 0.894278 15.262703 6.818422 2.385547 0.000000 0.000000 0.000000 7.031237 -3.216166 6.958081 -21.246504 -7.535834 -7.722083 65.409327 -9.410366 -0.153408 6.136531 -10.946608 2.273349 0.000000 0.000000 0.000000 1.380627 -6.715858 1.044494 -0.103302 1.106460 -0.649911 -6.151742 -0.592005 0.268009 -3.548603 0.038714 0.379599 0.000000 0.000000 0.000000 -8.126940 0.067343 -2.126362 -3.616194 0.541645 -0.405531 0.000000 0.000000 0.000000 1.831867 1.642377 2.746641 1.856425 -2.164074 23.573237 -67.824195 -33.277327 9.163401 -11.742240 -47.047661 12.945084 0.000000 0.000000 0.000000 -4.436338 -2.204629 -3.486592 0.254653 2.663737 -22.689888 -64.500762 18.108993 1.791733 -28.389966 52.528950 9.326559 0.000000 0.000000 0.000000 
-22.588999 123.207870 39.129395 0.000000 0.000000 0.000000 0.617434 -20.579275 -4.153686 -40.386004 6.172802 11.985978 73.002168 8.366862 0.993735 15.813910 7.277170 3.019693 0.000000 0.000000 0.000000 6.477158 -2.846857 6.798560 -22.003938 -7.333426 -7.873294 66.352262 -9.224473 -0.079716 6.726485 -10.744706 2.509276 0.000000 0.000000 0.000000 1.452363 -6.080614 1.032395 -0.507010 1.579291 -0.635608 -6.596604 -0.566003 0.414176 -3.741472 0.073626 0.446147 0.000000 0.000000 0.000000 -8.403543 0.090404 -2.075562 -3.696791 0.503470 -0.380921 0.000000 0.000000 0.000000 1.645150 1.717505 2.779649 1.841952 -2.526947 24.186615 -67.771855 -32.765244 8.399078 -11.744920 -46.087050 12.201891 0.000000 0.000000 0.000000 -4.410964 -2.257711 -3.537459 0.463684 2.483379 -23.403085 -63.788093 17.671018 1.772231 -27.409836 50.452630 8.751719 0.000000 0.000000 0.000000 
-22.797123 122.451569 39.813526 0.000000 0.000000 0.000000 0.493499 -19.730842 -4.210571 -40.526224 6.362527 12.000925 73.535142 8.753656 1.083713 16.214627 7.644183 3.540706 0.000000 0.000000 0.000000 5.990461 -2.638870 6.674524 -22.674010 -7.188127 -7.999450 67.083202 -9.097698 0.022930 7.157869 -10.625878 2.747002 0.000000 0.000000 0.000000 1.527791 -5.458796 1.026265 -0.893497 2.032091 -0.598707 -7.029605 -0.556637 0.547102 -3.914577 0.097303 0.499920 0.000000 0.000000 0.000000 -8.668871 0.111946 -2.010857 -3.777837 0.469433 -0.342136 0.000000 0.000000 0.000000 1.458310 1.799119 2.784355 1.798156 -2.820258 24.714380 -68.011615 -32.146388 7.408161 -11.923030 -45.209555 11.332229 0.000000 0.000000 0.000000 -4.398074 -2.317720 -3.625109 0.640349 2.265371 -24.266284 -63.322650 17.366094 1.574270 -26.741318 48.608182 8.318782 0.000000 0.000000 0.000000 
-22.995777 121.801331 40.485176 0.000000 0.000000 0.000000 0.415653 -18.981987 -4.229898 -40.578659 6.518933 12.018338 73.849016 9.044823 1.162270 16.475765 7.921918 3.945490 0.000000 0.000000 0.000000 5.568125 -2.578972 6.584258 -23.260086 -7.096553 -8.100050 67.607111 -9.034052 0.138119 7.440633 -10.586167 2.954860 0.000000 0.000000 0.000000 1.607720 -4.867829 1.026836 -1.249929 2.443207 -0.542482 -7.446551 -0.563048 0.661210 -4.067531 0.109927 0.538567 0.000000 0.000000 0.000000 -8.911320 0.129786 -1.946976 -3.853757 0.437946 -0.297366 0.000000 0.000000 0.000000 1.282206 1.884334 2.765626 1.737546 -3.051257 25.171090 -68.447580 -31.444354 6.300234 -12.218338 -44.391875 10.404030 0.000000 0.000000 0.000000 -4.393779 -2.380438 -3.734353 0.789596 2.030672 -25.209887 -63.051607 17.209934 1.256209 -26.316480 47.019893 8.004351 0.000000 0.000000 0.000000 
-23.182417 121.261398 41.145657 0.000000 0.000000 0.000000 0.382196 -18.348373 -4.218610 -40.550447 6.642110 12.035283 73.968811 9.249826 1.226473 16.614983 8.120611 4.237981 0.000000 0.000000 0.000000 5.204655 -2.638860 6.524611 -23.767356 -7.050514 -8.174781 67.933704 -9.027023 0.249800 7.589097 -10.611011 3.112497 0.000000 0.000000 0.000000 1.692415 -4.322555 1.035147 -1.567958 2.801603 -0.468776 -7.844975 -0.583533 0.752598 -4.200957 0.112212 0.560685 0.000000 0.000000 0.000000 -9.123530 0.142691 -1.900430 -3.920683 0.407692 -0.255967 0.000000 0.000000 0.000000 1.125244 1.970240 2.729008 1.671647 -3.229183 25.573562 -68.985778 -30.687142 5.175539 -12.575621 -43.612520 9.477055 0.000000 0.000000 0.000000 -4.394882 -2.441846 -3.851410 0.916792 1.798553 -26.171531 -62.909901 17.207021 0.876132 -26.070863 45.699891 7.793375 0.000000 0.000000 0.000000 
-23.354769 120.830963 41.794975 0.000000 0.000000 0.000000 0.388470 -17.831507 -4.184620 -40.454896 6.735317 12.050252 73.929954 9.383410 1.273295 16.653543 8.255779 4.428263 0.000000 0.000000 0.000000 4.893196 -2.782705 6.492335 -24.202272 -7.039458 -8.223087 68.077472 -9.062341 0.344228 7.620177 -10.678967 3.211191 0.000000 0.000000 0.000000 1.781017 -3.833402 1.052054 -1.847202 3.107188 -0.379085 -8.224366 -0.615583 0.819332 -4.316565 0.105435 0.565972 0.000000 0.000000 0.000000 -9.302588 0.150638 -1.885330 -3.976638 0.377898 -0.226134 0.000000 0.000000 0.000000 0.993159 2.053738 2.679758 1.610581 -3.365973 25.937246 -69.545492 -29.906687 4.111213 -12.946765 -42.859365 8.598073 0.000000 0.000000 0.000000 -4.399815 -2.498788 -3.966786 1.026138 1.583347 -27.107518 -62.836511 17.353696 0.477615 -25.947923 44.647543 7.672016 0.000000 0.000000 0.000000 
